<svg width="21" height="14" viewBox="0 0 21 14" fill="none" xmlns="http://www.w3.org/2000/svg">
<path d="M9.67844 6.54411C10.6357 6.41112 11.375 5.58776 11.375 4.59377C11.375 3.50878 10.4922 2.62502 9.40623 2.62502H7.65634C7.29409 2.62502 7.00009 2.91902 7.00009 3.28127V5.89843V5.91413V8.09373C7.00009 8.45599 7.29409 8.74999 7.65634 8.74999C8.01859 8.74999 8.31259 8.45599 8.31259 8.09373V7.18113L10.3373 8.62758C10.4528 8.71073 10.5867 8.74999 10.7187 8.74999C10.9235 8.74999 11.1247 8.65466 11.2534 8.47521C11.4642 8.18041 11.396 7.77089 11.1012 7.56005L9.67844 6.54411ZM8.31259 5.25003V3.93752H9.40623C9.76848 3.93752 10.0625 4.23232 10.0625 4.59377C10.0625 4.95522 9.76848 5.25003 9.40623 5.25003H8.31259Z" fill="#F01921"/>
<path d="M15.7501 7.21877C15.7501 6.13378 14.8673 5.25002 13.7813 5.25002H12.0312C11.669 5.25002 11.375 5.54402 11.375 5.90627V10.7187C11.375 11.081 11.669 11.375 12.0312 11.375C12.3935 11.375 12.6875 11.081 12.6875 10.7187V9.18753H13.7813C14.8673 9.18753 15.7501 8.30377 15.7501 7.21877V7.21877ZM13.7813 7.87503H12.6875V6.56252H13.7813C14.1435 6.56252 14.4375 6.85732 14.4375 7.21877C14.4375 7.58022 14.1435 7.87503 13.7813 7.87503Z" fill="#F01921"/>
<path d="M18.5938 0H2.40631C1.07891 0 0 1.07891 0 2.40631V11.5938C0 12.9213 1.07891 14 2.40631 14H18.5938C19.9212 14 21.0001 12.9213 21.0001 11.5938V2.40631C21.0001 1.07891 19.9212 0 18.5938 0V0ZM19.6876 11.5938C19.6876 12.1967 19.1967 12.6875 18.5938 12.6875H2.40631C1.80341 12.6875 1.31251 12.1967 1.31251 11.5938V2.40631C1.31251 1.80341 1.80341 1.31251 2.40631 1.31251H18.5938C19.1967 1.31251 19.6876 1.80341 19.6876 2.40631V11.5938Z" fill="#F01921"/>
</svg>
